<svg width="89.035156" height="94.971069" viewBox="0 0 89.0352 94.9711" fill="none" xmlns="http://www.w3.org/2000/svg" xmlns:xlink="http://www.w3.org/1999/xlink">
	<desc>
			Created with Pixso.
	</desc>
	<defs/>
	<path id="path" d="M17.8071 59.3568L23.7427 59.3568C27.0222 59.3568 29.6785 56.6975 29.6785 53.421L29.6785 47.4855C29.6785 44.2059 27.0222 41.5498 23.7427 41.5498L17.8071 41.5498C14.5276 41.5498 11.8713 44.2059 11.8713 47.4855L11.8713 53.421C11.8713 56.6975 14.5276 59.3568 17.8071 59.3568ZM15.5332 45.5059L26.7104 45.5059L26.7104 56.0043L15.5332 56.0043L15.5332 45.5059ZM65.2925 83.0994L71.2283 83.0994C74.5076 83.0994 77.1641 80.4431 77.1641 77.1638L77.1641 71.2281C77.1641 67.9489 74.5076 65.2926 71.2283 65.2926L65.2925 65.2926C62.0161 65.2926 59.3567 67.9489 59.3567 71.2281L59.3567 77.1638C59.3567 80.4431 62.0129 83.0994 65.2925 83.0994ZM62.3247 69.002L73.5356 69.002L73.5356 79.5034L62.3247 79.5034L62.3247 69.002ZM65.2925 59.3568L71.2283 59.3568C74.5076 59.3568 77.1641 56.6975 77.1641 53.421L77.1641 47.4855C77.1641 44.2059 74.5076 41.5498 71.2283 41.5498L65.2925 41.5498C62.0161 41.5498 59.3567 44.2059 59.3567 47.4855L59.3567 53.421C59.3567 56.6975 62.0129 59.3568 65.2925 59.3568ZM62.3247 45.5059L73.5356 45.5059L73.5356 56.0043L62.3247 56.0043L62.3247 45.5059ZM77.1641 5.93567L65.2925 5.93567L65.2925 2.9679C65.2925 1.32959 63.9629 0 62.3247 0C60.6868 0 59.3569 1.32959 59.3569 2.9679L59.3569 5.93567L29.6785 5.93567L29.6785 2.9679C29.6785 1.32959 28.3489 0 26.7104 0C25.0723 0 23.7427 1.32959 23.7427 2.9679L23.7427 5.93567L11.8713 5.93567C5.31543 5.93567 0 11.2512 0 17.807L0 83.0994C0 89.6554 5.31543 94.9711 11.8713 94.9711L77.1638 94.9711C83.7197 94.9711 89.0352 89.6555 89.0352 83.0994L89.0352 17.807C89.0352 11.251 83.7197 5.93567 77.1641 5.93567ZM83.0996 83.0994C83.0996 86.379 80.4434 89.0352 77.1641 89.0352L11.8713 89.0352C8.5918 89.0352 5.93579 86.376 5.93579 83.0994L5.93579 29.6785L83.0996 29.6785L83.0996 83.0994ZM83.0996 23.7427L5.93579 23.7427L5.93579 17.807C5.93579 14.5276 8.5918 11.8713 11.8713 11.8713L23.7427 11.8713L23.7427 14.8392C23.7427 16.4775 25.0723 17.807 26.7104 17.807C28.3489 17.807 29.6785 16.4775 29.6785 14.8392L29.6785 11.8713L59.3567 11.8713L59.3567 14.8392C59.3567 16.4775 60.6865 17.807 62.3247 17.807C63.9626 17.807 65.2925 16.4775 65.2925 14.8392L65.2925 11.8713L77.1641 11.8713C80.4434 11.8713 83.0996 14.5276 83.0996 17.807L83.0996 23.7427ZM41.5498 83.0994L47.4854 83.0994C50.7649 83.0994 53.4211 80.4431 53.4211 77.1638L53.4211 71.2281C53.4211 67.9489 50.7649 65.2926 47.4854 65.2926L41.5498 65.2926C38.2734 65.2926 35.614 67.9489 35.614 71.2281L35.614 77.1638C35.614 80.4431 38.2703 83.0994 41.5498 83.0994ZM39.5347 69.002L50.0347 69.002L50.0347 79.5034L39.5347 79.5034L39.5347 69.002ZM41.5498 59.3568L47.4854 59.3568C50.7649 59.3568 53.4211 56.6975 53.4211 53.421L53.4211 47.4855C53.4211 44.2059 50.7649 41.5498 47.4854 41.5498L41.5498 41.5498C38.2734 41.5498 35.614 44.2059 35.614 47.4855L35.614 53.421C35.614 56.6975 38.2703 59.3568 41.5498 59.3568ZM39.5347 45.5059L50.0347 45.5059L50.0347 56.0043L39.5347 56.0043L39.5347 45.5059ZM17.8071 83.0994L23.7427 83.0994C27.0222 83.0994 29.6785 80.4431 29.6785 77.1638L29.6785 71.2281C29.6785 67.9489 27.0222 65.2926 23.7427 65.2926L17.8071 65.2926C14.5276 65.2926 11.8713 67.9489 11.8713 71.2281L11.8713 77.1638C11.8713 80.4431 14.5276 83.0994 17.8071 83.0994ZM15.5332 69.002L26.7104 69.002L26.7104 79.5034L15.5332 79.5034L15.5332 69.002Z" fill="#FFFFFF" fill-opacity="1.000000" fill-rule="nonzero"/>
</svg>
