<svg width="95.000000" height="95.000000" viewBox="0 0 95 95" fill="none" xmlns="http://www.w3.org/2000/svg" xmlns:xlink="http://www.w3.org/1999/xlink">
	<desc>
			Created with Pixso.
	</desc>
	<defs/>
	<path id="path" d="M47.5 95C41.2012 95 35.1421 93.7947 29.3228 91.3843C23.5029 88.9738 18.3662 85.5416 13.9126 81.0876C9.4585 76.6335 6.02637 71.4969 3.61572 65.6774C1.20508 59.858 0 53.7989 0 47.5C0 41.2011 1.20508 35.142 3.61572 29.3225C6.02637 23.5031 9.4585 18.3664 13.9126 13.9124C18.3662 9.45844 23.5029 6.02618 29.3228 3.61572C35.1421 1.20526 41.2012 0 47.5 0C53.7988 0 59.8579 1.20526 65.6772 3.61572C71.4971 6.02618 76.6338 9.45844 81.0874 13.9124C85.5415 18.3664 88.9736 23.5031 91.3843 29.3225C93.7949 35.142 95 41.2011 95 47.5C95 53.7989 93.7949 59.858 91.3843 65.6775C88.9736 71.4969 85.5415 76.6335 81.0874 81.0876C76.6338 85.5416 71.4971 88.9738 65.6772 91.3843C59.8579 93.7947 53.7988 95 47.5 95ZM47.5 7.30768C42.1699 7.30768 37.043 8.32751 32.1191 10.3671C27.1948 12.4068 22.8486 15.311 19.0796 19.0798C15.311 22.8485 12.4067 27.1949 10.3672 32.1191C8.32764 37.0432 7.30762 42.1702 7.30762 47.5C7.30762 52.8298 8.32764 57.9568 10.3672 62.8809C12.4067 67.8051 15.311 72.1515 19.0796 75.9202C22.8486 79.689 27.1948 82.5932 32.1191 84.6328C37.043 86.6725 42.1699 87.6923 47.5 87.6923C52.8296 87.6923 57.957 86.6725 62.8809 84.6328C67.8052 82.5932 72.1514 79.689 75.9204 75.9202C79.689 72.1515 82.5933 67.8051 84.6328 62.8809C86.6724 57.9568 87.6924 52.8298 87.6924 47.5C87.6924 42.1702 86.6724 37.0432 84.6328 32.1191C82.5933 27.1949 79.689 22.8485 75.9204 19.0798C72.1514 15.311 67.8052 12.4068 62.8809 10.3671C57.957 8.32751 52.8296 7.30768 47.5 7.30768Z" fill="#FFFFFF" fill-opacity="1.000000" fill-rule="nonzero"/>
	<path id="path" d="M67.5962 71.25C66.585 71.2558 65.7202 70.9026 65.002 70.1904L44.9058 50.0942C44.1938 49.3761 43.8403 48.5114 43.8462 47.5L43.8462 18.2692C43.8462 15.8333 45.064 14.6154 47.5 14.6154C49.936 14.6154 51.1538 15.8333 51.1538 18.2692L51.1538 46.0019L70.1904 65.0019C71.9341 66.7314 71.9341 68.4609 70.1904 70.1904C69.4722 70.9026 68.6074 71.2558 67.5962 71.25Z" fill="#FFFFFF" fill-opacity="1.000000" fill-rule="nonzero"/>
</svg>
