<svg width="12.000000" height="16.000000" viewBox="0 0 12 16" fill="none" xmlns="http://www.w3.org/2000/svg" xmlns:xlink="http://www.w3.org/1999/xlink">
	<desc>
			Created with Pixso.
	</desc>
	<defs/>
	<path id="path" d="M6 16C6 16 12 10.314 12 6C12 5.20435 11.8477 4.43896 11.5432 3.70386C11.2388 2.96875 10.8052 2.32007 10.2427 1.75732C9.67993 1.19482 9.03125 0.76123 8.29614 0.456787C7.56104 0.152344 6.79565 0 6 0C5.20435 0 4.43896 0.152344 3.70386 0.456787C2.96875 0.76123 2.32007 1.19482 1.75732 1.75732C1.19482 2.32007 0.76123 2.96875 0.456787 3.70386C0.152344 4.43896 0 5.20435 0 6C0 10.314 6 16 6 16ZM6 9C5.17163 9 4.46436 8.70703 3.87866 8.12134C3.29297 7.53564 3 6.82837 3 6C3 5.17163 3.29297 4.46436 3.87866 3.87866C4.46436 3.29297 5.17163 3 6 3C6.82837 3 7.53564 3.29297 8.12134 3.87866C8.70703 4.46436 9 5.17163 9 6C9 6.82837 8.70703 7.53564 8.12134 8.12134C7.53564 8.70703 6.82837 9 6 9Z" fill="#F5EA56" fill-opacity="1.000000" fill-rule="nonzero"/>
</svg>
