<svg width="16.006836" height="12.005127" viewBox="0 0 16.0068 12.0051" fill="none" xmlns="http://www.w3.org/2000/svg" xmlns:xlink="http://www.w3.org/1999/xlink">
	<desc>
			Created with Pixso.
	</desc>
	<defs/>
	<path id="path" d="M16.0068 10.0042C16.0068 10.3552 15.9082 10.6804 15.7502 10.9666L10.696 5.31201L15.6953 0.937988C15.8899 1.24658 16.0068 1.60913 16.0068 2.00098L16.0068 10.0042ZM8.00342 6.33862L14.9597 0.252197C14.6743 0.0959473 14.3528 0 14.0061 0L2.00098 0C1.65356 0 1.33203 0.0959473 1.04785 0.252197L8.00342 6.33862ZM9.94287 5.97046L8.33276 7.38013C8.23853 7.46216 8.12109 7.50317 8.00342 7.50317C7.88574 7.50317 7.76855 7.46216 7.67432 7.38013L6.06372 5.97046L0.945801 11.6973C1.25244 11.8899 1.61206 12.0051 2.00073 12.0051L14.0061 12.0051C14.3948 12.0051 14.7546 11.8899 15.0613 11.6973L9.94287 5.97046ZM0.311768 0.937988C0.117188 1.24658 0 1.60913 0 2.00098L0 10.0042C0 10.3552 0.0981445 10.6804 0.256836 10.9668L5.3103 5.31104L0.311768 0.937988Z" fill="#F5EA56" fill-opacity="1.000000" fill-rule="nonzero"/>
</svg>
