<svg width="10.341309" height="21.000000" viewBox="0 0 10.3413 21" fill="none" xmlns="http://www.w3.org/2000/svg" xmlns:xlink="http://www.w3.org/1999/xlink">
	<desc>
			Created with Pixso.
	</desc>
	<defs/>
	<path id="path" d="M8.46094 21C8.46094 21 10.3413 21 10.3413 19.0911L10.3413 1.90894C10.3411 0 8.46094 0 8.46094 0L1.88013 0C1.88013 0 0 0 0 1.90894L0 19.0911C0 21 1.88013 21 1.88013 21L8.46094 21ZM5.17065 20.2051C4.65161 20.2051 4.23047 19.7781 4.23047 19.252C4.23047 18.7261 4.65161 18.2991 5.17065 18.2991C5.68945 18.2991 6.1106 18.7261 6.1106 19.252C6.1106 19.7781 5.68945 20.2051 5.17065 20.2051ZM3.7605 1.16382C3.7605 1.04541 3.81592 0.953125 3.8855 0.953125L6.45581 0.953125C6.52441 0.953125 6.58081 1.04736 6.58081 1.16382L6.58081 1.21997C6.58081 1.33813 6.52441 1.43066 6.45581 1.43066L3.8855 1.43066C3.81689 1.43066 3.7605 1.33618 3.7605 1.21997L3.7605 1.16382ZM0.940186 2.38257L9.40112 2.38257L9.40112 17.6318L0.940186 17.6318L0.940186 2.38257Z" fill="#F5EA56" fill-opacity="1.000000" fill-rule="nonzero"/>
</svg>
