<svg width="83.612305" height="95.000000" viewBox="0 0 83.6123 95" fill="none" xmlns="http://www.w3.org/2000/svg" xmlns:xlink="http://www.w3.org/1999/xlink">
	<desc>
			Created with Pixso.
	</desc>
	<defs/>
	<path id="path" d="M38.3408 50.7271C35.46 50.7271 33.4102 48.2205 31.7715 46.2172C31.4653 45.8428 31.1465 45.4513 30.8086 45.0526C29.9409 44.0266 30.0674 42.4924 31.0933 41.627C32.1191 40.7615 33.6533 40.8854 34.5215 41.9089C34.8765 42.3296 35.2144 42.7429 35.5376 43.1367C38.1729 46.3655 38.2363 46.3217 39.8799 45.0161C42.6733 42.7964 46.5439 38.9137 49.2134 36.1882C50.1567 35.2279 51.6934 35.2134 52.6509 36.1493C53.6113 37.0902 53.626 38.6293 52.6899 39.5872C49.9307 42.4073 45.9141 46.431 42.9043 48.8234C41.1782 50.1921 39.6704 50.7271 38.3408 50.7271Z" fill="#FFFFFF" fill-opacity="1.000000" fill-rule="nonzero"/>
	<path id="path" d="M81.1768 26.0525C80.8022 26.0525 80.418 25.965 80.0605 25.7802C77.9092 24.6666 70.3379 20.5603 62.3198 16.2084C53.4067 11.3727 44.1875 6.37158 40.7744 4.58948C39.583 3.96704 39.1235 2.49866 39.7456 1.30725C40.3682 0.12085 41.8364 -0.343506 43.0254 0.276489C46.4731 2.078 55.7095 7.08875 64.6392 11.9342C72.6333 16.2716 80.187 20.3682 82.2974 21.4623C83.4888 22.0798 83.9556 23.5459 83.3379 24.7396C82.9053 25.5735 82.0591 26.0525 81.1768 26.0525Z" fill="#FFFFFF" fill-opacity="1.000000" fill-rule="nonzero"/>
	<path id="path" d="M41.8096 94.9976C40.8711 94.9976 39.9761 94.4506 39.5801 93.5339C39.0449 92.3037 39.6089 90.8693 40.8394 90.3369C76.9214 74.6505 78.7495 32.0089 78.7495 23.6212C78.7495 22.2767 79.8364 21.1899 81.1807 21.1899C82.5254 21.1899 83.6123 22.2767 83.6123 23.6212C83.6123 49.4482 72.8853 81.7084 42.7793 94.7958C42.4634 94.9343 42.1328 94.9976 41.8096 94.9976Z" fill="#FFFFFF" fill-opacity="1.000000" fill-rule="nonzero"/>
	<path id="path" d="M2.62549 26.0525C1.74561 26.0525 0.896973 25.576 0.464355 24.7396C-0.15332 23.5483 0.313477 22.0798 1.50488 21.4624C3.61523 20.3683 11.1665 16.2716 19.1626 11.9343C28.0928 7.08887 37.3291 2.07812 40.7764 0.276489C41.9702 -0.345825 43.4365 0.11853 44.0562 1.30737C44.6787 2.49622 44.2168 3.96716 43.0278 4.5896C39.6143 6.37158 30.395 11.3727 21.4824 16.2085C13.4663 20.558 5.89307 24.6667 3.74365 25.7803C3.38428 25.965 3.00244 26.0525 2.62549 26.0525Z" fill="#FFFFFF" fill-opacity="1.000000" fill-rule="nonzero"/>
	<path id="path" d="M41.8076 95C41.4844 95 41.1562 94.9368 40.8398 94.7982C10.729 81.7108 0 49.4482 0 23.6212C0 22.2767 1.08936 21.1899 2.43115 21.1899C3.77344 21.1899 4.8623 22.2767 4.8623 23.6212C4.8623 32.0089 6.69092 74.653 42.7778 90.3392C44.0103 90.8741 44.5742 92.3086 44.0396 93.5364C43.6406 94.4553 42.7461 95 41.8076 95Z" fill="#FFFFFF" fill-opacity="1.000000" fill-rule="nonzero"/>
	<path id="path" d="M42.2432 69.1707C33.7217 69.1707 26.7998 66.1851 21.6724 60.3015C20.0068 58.3905 18.563 55.9934 17.605 53.5499C16.3481 50.3431 15.6987 46.4556 15.8691 43.149C16.1729 37.2169 17.498 32.6316 19.9243 29.1282C24.1597 23.016 32.1245 19.2208 40.709 19.2208C41.2656 19.2208 41.8203 19.2378 42.3672 19.2719C53.1426 19.9235 62.3374 25.8606 65.7969 34.4064C68.8848 42.0283 68.3086 50.2191 64.2217 56.8734C62.3032 60 58.603 63.6007 55.231 65.626C51.521 67.8505 47.0933 69.1123 42.7656 69.1731L42.2432 69.1707ZM40.7065 24.0809C35.207 24.0809 27.9111 26.1353 23.9165 31.8949C22.02 34.63 20.9746 38.3936 20.7192 43.3922C20.5854 46.0059 21.1255 49.2175 22.127 51.7727C22.876 53.6788 24.0454 55.6238 25.334 57.1021C29.5571 61.9498 35.0854 64.3058 42.2407 64.3058L42.6904 64.3033C46.1743 64.2523 49.7388 63.2384 52.7217 61.4491C55.4521 59.8104 58.5444 56.8151 60.0688 54.3231C63.3901 48.916 63.8228 42.4902 61.2847 36.2225C57.9297 27.9417 48.8369 24.5258 42.0703 24.1173C41.6206 24.0955 41.166 24.0809 40.7065 24.0809Z" fill="#FFFFFF" fill-opacity="1.000000" fill-rule="nonzero"/>
</svg>
