<svg width="64.000000" height="64.000000" viewBox="0 0 64 64" fill="none" xmlns="http://www.w3.org/2000/svg" xmlns:xlink="http://www.w3.org/1999/xlink">
	<desc>
			Created with Pixso.
	</desc>
	<defs>
		<clipPath id="clip25_1">
			<rect id="iconfinder-social-media-applications-23whatsapp-4102606_113811" width="64.000000" height="64.000000" fill="white" fill-opacity="0"/>
		</clipPath>
		<linearGradient id="paint_linear_25_3_0" x1="32.000000" y1="4.000000" x2="32.000000" y2="64.809998" gradientUnits="userSpaceOnUse">
			<stop stop-color="#941DF4"/>
			<stop offset="0.310000" stop-color="#8312DF"/>
			<stop offset="0.743847" stop-color="#762BD1"/>
			<stop offset="1.000000" stop-color="#6D00BA"/>
		</linearGradient>
	</defs>
	<g clip-path="url(#clip25_1)">
		<rect id="rect" rx="11.200000" width="64.000000" height="64.000000" fill="url(#paint_linear_25_3_0)" fill-opacity="1.000000"/>
		<path id="path" d="M27.4199 21.38L29.4199 26.8101C29.5258 27.0754 29.4924 27.3221 29.3199 27.55C28.8894 28.1744 28.3961 28.7444 27.84 29.26C27.4417 29.5728 27.3883 29.936 27.6799 30.35C28.9099 32 32.1 36 36.25 37.4301C36.6177 37.5515 36.9144 37.4548 37.1399 37.14L38.7999 34.9301C39.0692 34.5747 39.4026 34.498 39.7999 34.7L45 37.3C45.4438 37.5092 45.5771 37.8424 45.3999 38.3C44.83 39.92 43.0399 43.87 39.21 43.23C34.0284 42.4351 29.7584 40.025 26.3999 36C23.26 32.08 17.0599 22 26.59 20.86C27.0009 20.8192 27.2775 20.9924 27.4199 21.38Z" fill="#FFFFFF" fill-opacity="1.000000" fill-rule="nonzero"/>
		<path id="path" d="M33.6 54.7999C29.345 54.8059 25.365 53.7626 21.66 51.6699L9.66003 54.75L14.0701 44.84C11.337 40.9962 9.98035 36.7162 10 32C10 19.4299 20.5901 9.19995 33.6 9.19995C46.61 9.19995 57.2001 19.4299 57.2001 32C57.2001 44.5699 46.61 54.7999 33.6 54.7999ZM22.29 47.37L23.02 47.8199C26.2627 49.8213 29.7894 50.8213 33.6 50.8199C44.41 50.8199 53.2001 42.3899 53.2001 32.0199C53.2001 21.6499 44.41 13.2 33.6 13.2C22.79 13.2 14 21.63 14 32C14.0046 36.2487 15.338 40.0287 18 43.34L18.75 44.2899L15.14 50.4099L22.29 47.37Z" fill="#FFFFFF" fill-opacity="1.000000" fill-rule="nonzero"/>
	</g>
</svg>
